<?xml version="1.0" standalone="no"?><!DOCTYPE svg PUBLIC "-//W3C//DTD SVG 1.1//EN" "http://www.w3.org/Graphics/SVG/1.1/DTD/svg11.dtd"><svg t="1679107944265" class="icon" viewBox="0 0 1024 1024" version="1.1" xmlns="http://www.w3.org/2000/svg" p-id="1798" xmlns:xlink="http://www.w3.org/1999/xlink" width="32" height="32"><path d="M1024 0v1024H0V0h1024z" fill="#FFFFFF" p-id="1799"></path><path d="M473.322667 202.666667c127.061333 0 255.274667 7.232 383.573333 21.546666a32 32 0 0 1-7.104 63.573334 3400.362667 3400.362667 0 0 0-376.469333-21.12 1959.466667 1959.466667 0 0 0-197.12 9.962666l-24.661334 2.645334-77.376 8.533333a32 32 0 0 1-10.048-63.146667l3.050667-0.469333 77.248-8.533333a2025.664 2025.664 0 0 1 228.906667-12.992z" fill="#3F495C" p-id="1800"></path><path d="M567.893333 53.333333c77.162667 0 103.125333 27.776 114.773334 92.949334l10.218666 60.437333a32 32 0 0 1-62.442666 13.696l-0.661334-3.029333-10.666666-63.146667-1.237334-6.613333-1.28-5.76c-3.989333-16.128-9.536-21.76-25.258666-23.637334l-5.632-0.490666-6.442667-0.277334-7.338667-0.106666H448.213333l-6.933333 0.170666c-24.853333 0.917333-30.250667 5.76-35.093333 29.653334l-1.28 6.677333-10.666667 63.488a32 32 0 0 1-63.488-7.530667l0.362667-3.050666 9.386666-55.914667 1.813334-9.877333c12.117333-60.736 37.098667-86.314667 108.096-87.594667l5.696-0.042667h111.786666zM788.181333 352l3.093334 0.064a32 32 0 0 1 30.037333 30.784l-0.042667 3.093333-26.325333 434.496-0.853333 11.584-0.533334 5.610667-1.173333 10.816-1.408 10.282667c-11.946667 78.656-46.378667 110.592-142.784 111.893333l-6.229333 0.042667H382.037333c-101.162667 0-136.832-31.594667-149.034666-112.042667l-1.386667-10.304-0.64-5.333333-1.066667-11.093334a562.346667 562.346667 0 0 1-0.448-5.76l-0.426666-5.866666-26.304-434.346667a32 32 0 0 1 63.552-6.912l0.32 3.050667 26.304 434.176 1.066666 14.314666 0.789334 8.682667 0.426666 4.074667 0.96 7.68 1.109334 7.04c0.405333 2.261333 0.853333 4.394667 1.301333 6.442666l1.493333 5.866667c6.784 23.253333 19.84 32.128 48.874667 35.072l7.274667 0.576 7.936 0.405333 8.597333 0.213334 9.301333 0.064h264.661334l8.96-0.149334 8.256-0.298666 3.882666-0.213334 7.274667-0.597333 6.677333-0.832c29.717333-4.394667 40.362667-17.066667 45.568-49.92l1.024-7.317333 0.896-8 0.789334-8.661334 1.066666-14.293333 26.304-434.325333a32 32 0 0 1 30.784-30.037334z" fill="#3F495C" p-id="1801"></path><path d="M576 682.666667a32 32 0 0 1 3.072 63.850666L576 746.666667h-128a32 32 0 0 1-3.072-63.850667L448 682.666667h128zM618.666667 501.333333a32 32 0 0 1 3.072 63.850667L618.666667 565.333333H405.333333a32 32 0 0 1-3.072-63.850666L405.333333 501.333333h213.333334z" fill="#3F495C" p-id="1802"></path></svg>