<?xml version="1.0" standalone="no"?>
<!DOCTYPE svg PUBLIC "-//W3C//DTD SVG 1.1//EN" "http://www.w3.org/Graphics/SVG/1.1/DTD/svg11.dtd"><svg t="1679107960927"
  class="icon" viewBox="0 0 1024 1024" version="1.1" xmlns="http://www.w3.org/2000/svg" p-id="1959"
  xmlns:xlink="http://www.w3.org/1999/xlink" width="32" height="32">
  <path d="M0 1024V0h1024v1024H0z" fill="transparent" p-id="1960"></path>
  <path
    d="M341.333333 352a32 32 0 0 1 3.072 63.850667L341.333333 416h-128a53.333333 53.333333 0 0 0-53.226666 49.834667L160 469.333333v298.666667a53.333333 53.333333 0 0 0 49.834667 53.226667L213.333333 821.333333h597.333334a53.333333 53.333333 0 0 0 53.226666-49.834666L864 768V469.333333a53.333333 53.333333 0 0 0-49.834667-53.226666L810.666667 416h-128a32 32 0 0 1-3.072-63.850667L682.666667 352h128a117.333333 117.333333 0 0 1 117.248 112.618667L928 469.333333v298.666667a117.333333 117.333333 0 0 1-112.618667 117.248L810.666667 885.333333H213.333333a117.333333 117.333333 0 0 1-117.248-112.618666L96 768V469.333333a117.333333 117.333333 0 0 1 112.618667-117.248L213.333333 352h128z"
    fill="currentColor" p-id="1961"></path>
  <path
    d="M512 85.312a32 32 0 0 1 31.850667 28.906667l0.149333 3.093333-0.021333 444.565333 88.32-88.32 2.432-2.197333a32 32 0 0 1 42.837333 47.445333l-142.933333 142.933334-2.432 2.197333a32 32 0 0 1-42.837334-2.197333l-142.933333-142.933334-2.197333-2.432a32 32 0 0 1 2.197333-42.816l2.432-2.197333a32 32 0 0 1 42.837333 2.197333l88.277334 88.32 0.021333-444.586666a32 32 0 0 1 32-32z"
    fill="currentColor" p-id="1962"></path>
</svg>