<?xml version="1.0" standalone="no"?><!DOCTYPE svg PUBLIC "-//W3C//DTD SVG 1.1//EN" "http://www.w3.org/Graphics/SVG/1.1/DTD/svg11.dtd"><svg t="1656337435471" class="icon" viewBox="0 0 1025 1024" version="1.1" xmlns="http://www.w3.org/2000/svg" p-id="1523" xmlns:xlink="http://www.w3.org/1999/xlink" width="128.125" height="128"><defs><style type="text/css">@font-face { font-family: feedback-iconfont; src: url("//at.alicdn.com/t/font_1031158_u69w8yhxdu.woff2?t=1630033759944") format("woff2"), url("//at.alicdn.com/t/font_1031158_u69w8yhxdu.woff?t=1630033759944") format("woff"), url("//at.alicdn.com/t/font_1031158_u69w8yhxdu.ttf?t=1630033759944") format("truetype"); }
</style></defs><path d="M832.69376 744.96h-172.16v-64H832.69376a112 112 0 0 0 77.44-32A215.68 215.68 0 0 0 960.69376 488.32c0-71.04-97.92-133.76-157.44-133.76h-26.24L768.69376 328.32c0-8.96-46.72-222.72-256-222.72v-64a330.88 330.88 0 0 1 315.52 250.88c92.8 12.8 196.48 99.84 196.48 195.84a274.56 274.56 0 0 1-71.04 208 178.56 178.56 0 0 1-120.96 48.64z" p-id="1524"></path><path d="M405.17376 624.64A32.64 32.64 0 0 1 384.69376 615.04a32 32 0 0 1 0-45.44l128-128 128 128a32 32 0 0 1 0 45.44 32.64 32.64 0 0 1-46.08 0L512.69376 530.56 428.21376 615.04a32.64 32.64 0 0 1-23.04 9.6z" p-id="1525"></path><path d="M512.69376 1024a32 32 0 0 1-32-32.64V484.48a32 32 0 0 1 32-32 32 32 0 0 1 32.64 32v506.24A32.64 32.64 0 0 1 512.69376 1024zM192.69376 744.96a176.64 176.64 0 0 1-117.76-48.64A274.56 274.56 0 0 1 0.69376 488.32c0-96 103.68-183.04 196.48-196.48A330.88 330.88 0 0 1 512.69376 40.96v64C299.57376 105.6 256.69376 320 256.69376 328.32l-5.12 26.24h-28.8C163.25376 354.56 64.69376 417.28 64.69376 488.32a215.68 215.68 0 0 0 49.92 160 113.28 113.28 0 0 0 75.52 32h174.72v64H192.69376z" p-id="1526"></path></svg>