<?xml version="1.0" standalone="no"?>
<!DOCTYPE svg PUBLIC "-//W3C//DTD SVG 1.1//EN" "http://www.w3.org/Graphics/SVG/1.1/DTD/svg11.dtd">
<svg xmlns="http://www.w3.org/2000/svg" xmlns:xlink="http://www.w3.org/1999/xlink" aria-hidden="true" role="img"
  class=" iconify iconify--ri" width="1em" height="1em" viewBox="0 0 24 24">
  <path fill="currentColor"
    d="M16 20.334v-2.199a7.522 7.522 0 0 0 3.623-4.281a9 9 0 0 1-10.622-8.99A7.518 7.518 0 0 0 5.151 10H3.117a9.505 9.505 0 0 1 8.538-7.963a7 7 0 0 0 10.316 8.728A9.503 9.503 0 0 1 16 20.335zM7 20h7v2H7v-2zm-3-8h6v2H4v-2zm-2 4h10v2H2v-2z">
  </path>
</svg>