<?xml version="1.0" standalone="no"?>
<!DOCTYPE svg PUBLIC "-//W3C//DTD SVG 1.1//EN" "http://www.w3.org/Graphics/SVG/1.1/DTD/svg11.dtd"><svg t="1679107986498"
  class="icon" viewBox="0 0 1024 1024" version="1.1" xmlns="http://www.w3.org/2000/svg" p-id="2119"
  xmlns:xlink="http://www.w3.org/1999/xlink" width="32" height="32">
  <path d="M0 0h1024v1024H0z" fill="transparent" p-id="2120"></path>
  <path
    d="M810.666667 160H213.333333A117.333333 117.333333 0 0 0 96 277.333333v554.666667a117.333333 117.333333 0 0 0 117.333333 117.333333h597.333334a117.333333 117.333333 0 0 0 117.333333-117.333333V277.333333A117.333333 117.333333 0 0 0 810.666667 160z m-597.333334 64h597.333334a53.333333 53.333333 0 0 1 53.333333 53.333333v554.666667a53.333333 53.333333 0 0 1-53.333333 53.333333H213.333333A53.333333 53.333333 0 0 1 160 832V277.333333a53.333333 53.333333 0 0 1 53.333333-53.333333z"
    fill="currentColor" p-id="2121"></path>
  <path
    d="M682.666667 501.333333a32 32 0 0 1 3.072 63.850667L682.666667 565.333333H341.333333a32 32 0 0 1-3.072-63.850666L341.333333 501.333333h341.333334zM512 714.666667a32 32 0 0 1 3.072 63.850666L512 778.666667h-170.666667a32 32 0 0 1-3.072-63.850667L341.333333 714.666667h170.666667zM704 74.666667a32 32 0 0 1 31.850667 28.928L736 106.666667v149.333333a32 32 0 0 1-63.850667 3.072L672 256V106.666667A32 32 0 0 1 704 74.666667zM341.333333 74.666667a32 32 0 0 1 31.850667 28.928L373.333333 106.666667v149.333333a32 32 0 0 1-63.850666 3.072L309.333333 256V106.666667A32 32 0 0 1 341.333333 74.666667z"
    fill="currentColor" p-id="2122"></path>
</svg>