<?xml version="1.0" standalone="no"?><!DOCTYPE svg PUBLIC "-//W3C//DTD SVG 1.1//EN" "http://www.w3.org/Graphics/SVG/1.1/DTD/svg11.dtd"><svg t="1656337439274" class="icon" viewBox="0 0 1025 1024" version="1.1" xmlns="http://www.w3.org/2000/svg" p-id="1685" xmlns:xlink="http://www.w3.org/1999/xlink" width="128.125" height="128"><defs><style type="text/css">@font-face { font-family: feedback-iconfont; src: url("//at.alicdn.com/t/font_1031158_u69w8yhxdu.woff2?t=1630033759944") format("woff2"), url("//at.alicdn.com/t/font_1031158_u69w8yhxdu.woff?t=1630033759944") format("woff"), url("//at.alicdn.com/t/font_1031158_u69w8yhxdu.ttf?t=1630033759944") format("truetype"); }
</style></defs><path d="M97.523086 1019.567132A95.623285 95.623285 0 0 1 0 923.943847v-207.711507a31.66334 31.66334 0 0 1 31.66334-31.66334 31.66334 31.66334 0 0 1 32.296606 31.66334v207.711507a31.66334 31.66334 0 0 0 31.663339 32.296606h823.246829a31.66334 31.66334 0 0 0 32.296606-31.663339v-209.611308a31.66334 31.66334 0 0 1 31.663339-31.663339 31.66334 31.66334 0 0 1 32.296607 31.663339v208.344774a96.256552 96.256552 0 0 1-95.623286 95.623286z" p-id="1686"></path><path d="M498.380964 744.096078a32.296606 32.296606 0 0 1-32.296606-31.663339V38.636873a32.296606 32.296606 0 1 1 63.326679 0v673.795866a32.296606 32.296606 0 0 1-31.030073 31.663339z" p-id="1687"></path><path d="M497.747698 770.693284L311.567261 580.713246a31.66334 31.66334 0 0 1 0-44.961942 32.929873 32.929873 0 0 1 45.595209 0l141.218494 143.751562 147.551163-145.018095a31.66334 31.66334 0 0 1 44.961942 0 31.66334 31.66334 0 0 1 0 44.961942z" p-id="1688"></path></svg>